# xmcd
#
# Track frame offsets:
#	183
#	14880
#	27448
#	44460
#	61940
#	83455
#	106510
#	122093
#	133703
#	152545
#	164410
#	183263
#	193635
#	218505
#	231663
#	245630
#
# Disc length: 3518 seconds
#
# Revision: 4
# Processed by: cddbd v1.5.2PL0 Copyright (c) Steve Scherf et al.
# Submitted via: audiograbber 1.83.01
#
DISCID=d50dbc10
DTITLE=Tav Falco Panther Burns - Red Devil and Sugar Ditch Revisited
DYEAR=1988
DGENRE=Psychobilly
TTITLE0=Oh, How She Dances
TTITLE1=Drifting Heart
TTITLE2=Poor Man
TTITLE3=Two Little Puppies and One Old Shaggy Hound
TTITLE4=Tram
TTITLE5=Ode To Shetar
TTITLE6=Ditch Digging
TTITLE7=She's The One To Blame
TTITLE8=A Little Mixed Up
TTITLE9=Running Wild
TTITLE10=Money Talks
TTITLE11=Arkansas Stomp
TTITLE12=Working On A Building
TTITLE13=White Silver Sands
TTITLE14=Lonely Avenue
TTITLE15=Tina, The Go Go Queen
EXTD=
EXTT0=
EXTT1=
EXTT2=
EXTT3=
EXTT4=
EXTT5=
EXTT6=
EXTT7=
EXTT8=
EXTT9=
EXTT10=
EXTT11=
EXTT12=
EXTT13=
EXTT14=
EXTT15=
PLAYORDER=
